{"glyphs":{":":{"x_min":0,"x_max":135,"ha":135,"o":"m 68 337 q 89 337 104 322 q 118 307 118 286 q 118 265 104 251 q 89 238 68 238 q 47 238 31 254 q 16 270 16 291 q 16 308 32 323 q 48 337 68 337 z m 69 92 q 89 92 104 77 q 119 62 119 42 q 119 21 105 8 q 91 -6 69 -6 q 47 -6 32 8 q 16 22 16 43 q 16 63 32 78 q 47 92 69 92 z"},"$":{"x_min":0,"x_max":498,"ha":498,"o":"m 252 417 q 252 406 263 401 q 282 393 312 383 q 360 367 398 340 q 436 312 459 272 q 482 232 482 186 q 482 97 426 48 q 370 0 262 -6 q 257 -6 255 -9 q 253 -12 253 -21 l 253 -99 q 253 -107 247 -114 q 240 -120 232 -120 q 213 -120 213 -99 l 213 -21 q 213 -6 205 -6 q 136 -2 80 18 q 24 37 24 58 q 24 65 25 78 q 26 103 26 131 q 26 143 21 168 q 16 190 16 199 q 16 218 33 218 q 47 218 61 165 q 75 110 104 84 q 133 59 166 49 q 198 39 207 39 q 212 39 212 55 l 212 323 q 212 334 202 338 q 16 411 16 544 q 16 611 68 659 q 120 706 199 713 q 208 714 210 716 q 212 718 213 725 l 216 771 q 217 789 231 789 q 240 789 245 784 q 251 778 251 771 l 251 725 q 251 715 262 714 q 321 710 363 694 q 406 679 406 655 q 406 649 404 639 q 402 629 402 623 q 402 619 405 607 q 412 582 412 557 q 412 543 399 543 q 392 543 385 550 q 377 558 376 567 q 366 624 333 648 q 301 672 263 672 q 256 672 254 670 q 252 668 252 659 z m 214 438 l 214 662 q 214 672 208 672 q 194 672 164 660 q 134 647 116 619 q 98 591 98 553 q 98 498 148 463 q 198 429 208 429 q 214 429 214 438 z m 254 54 q 254 44 254 41 q 255 38 258 38 q 272 38 312 50 q 352 62 378 92 q 404 122 404 167 q 404 209 378 241 q 353 272 309 294 q 264 315 258 315 q 254 315 254 308 z"},"?":{"x_min":0,"x_max":416,"ha":416,"o":"m 194 709 q 278 709 339 658 q 400 607 400 531 q 400 488 381 453 q 361 417 334 391 q 306 365 255 324 q 204 284 185 252 q 166 220 166 193 q 166 150 141 150 q 128 150 123 160 q 118 170 118 205 q 118 240 137 276 q 156 312 213 366 q 271 422 287 461 q 303 500 303 539 q 303 586 274 624 q 245 661 197 661 q 139 661 105 630 q 72 600 72 552 q 72 525 83 507 q 95 488 114 488 q 120 488 124 490 q 129 491 134 491 q 145 491 156 483 q 168 474 168 463 q 168 443 150 431 q 132 420 107 420 q 71 420 43 452 q 16 484 16 544 q 16 611 65 660 q 113 709 194 709 z m 153 93 q 172 93 189 78 q 205 63 205 38 q 205 19 189 4 q 174 -10 153 -10 q 132 -10 115 6 q 99 21 99 42 q 99 63 115 78 q 131 93 153 93 z"},"<":{"x_min":0,"x_max":580,"ha":580,"o":"m 469 162 q 492 150 500 145 q 508 140 517 130 l 523 124 q 527 120 527 116 q 527 107 515 104 q 502 101 491 97 q 479 93 474 93 q 465 93 439 106 l 107 271 q 87 282 87 296 q 87 311 110 322 l 439 489 q 465 502 474 502 q 479 502 491 498 q 502 494 515 491 q 527 488 527 479 q 527 475 524 471 q 520 468 514 462 q 508 456 501 451 q 494 446 469 433 l 227 309 q 213 302 213 299 q 213 292 232 283 z"},"'":{"x_min":0,"x_max":122,"ha":122,"o":"m 88 699 q 100 699 107 690 q 114 681 114 671 q 114 656 98 643 q 90 637 86 621 q 81 605 79 560 q 77 515 71 506 q 65 497 59 497 q 51 497 49 509 q 47 521 47 574 q 47 601 42 624 q 37 646 37 655 q 37 676 57 688 q 76 699 88 699 z"},"=":{"x_min":0,"x_max":580,"ha":580,"o":"m 448 431 q 489 431 497 437 q 504 443 513 443 q 524 443 524 433 q 524 427 518 416 q 512 406 507 393 q 502 381 495 376 q 488 371 466 371 l 138 371 q 97 371 89 365 q 82 359 73 359 q 62 359 62 369 q 62 375 68 385 q 74 396 79 409 q 84 421 91 426 q 98 431 120 431 z m 448 224 q 489 224 497 230 q 504 236 513 236 q 524 236 524 226 q 524 220 518 209 q 512 199 507 186 q 502 174 495 169 q 488 164 466 164 l 138 164 q 97 164 89 158 q 82 152 73 152 q 62 152 62 162 q 62 168 68 178 q 74 189 79 202 q 84 214 91 219 q 98 224 120 224 z"},"a":{"x_min":0,"x_max":460,"ha":460,"o":"m 373 81 q 373 46 420 32 q 432 29 437 24 q 443 20 443 8 q 443 1 435 -3 q 428 -8 419 -8 q 410 -8 394 -3 q 378 1 368 1 q 357 1 340 -3 q 323 -8 317 -8 q 310 -8 303 -3 q 297 2 297 7 q 297 15 292 15 q 289 15 283 11 q 228 -23 164 -23 q 134 -23 96 -7 q 59 8 37 41 q 14 73 14 121 q 14 172 63 211 q 111 250 188 250 q 214 250 245 236 q 276 221 276 206 q 276 199 270 194 q 263 190 254 190 q 248 190 229 199 q 210 208 191 208 q 151 208 125 184 q 98 161 98 121 q 98 75 128 51 q 159 26 198 26 q 234 26 264 49 q 294 73 294 112 l 294 244 q 294 274 274 292 q 254 311 221 311 q 179 311 139 284 q 125 275 120 275 q 108 275 100 281 q 92 287 92 297 q 92 321 135 337 q 179 354 231 354 q 295 354 334 322 q 373 290 373 245 z"},"L":{"x_min":0,"x_max":521,"ha":521,"o":"m 399 38 q 417 38 430 47 q 444 55 449 84 q 455 114 462 120 q 470 126 480 126 q 487 126 495 118 q 503 110 503 97 q 503 55 509 12 q 509 -14 483 -12 q 467 -10 432 -10 l 52 -10 q 7 -10 7 13 q 7 28 15 32 q 23 37 40 37 q 71 39 79 54 q 87 69 87 88 l 87 600 q 87 618 78 633 q 69 647 40 656 q 10 666 4 674 q -2 682 -2 692 q -2 698 5 703 q 13 709 23 709 q 30 709 56 700 q 82 691 114 691 q 153 691 188 701 q 224 711 234 711 q 245 711 254 703 q 262 695 262 685 q 262 677 257 671 q 252 666 230 661 q 203 656 192 646 q 173 630 173 592 l 173 103 q 173 66 184 52 q 196 38 218 38 z"},"3":{"x_min":0,"x_max":549,"ha":549,"o":"m 297 515 q 293 510 293 507 q 293 505 300 505 q 325 507 330 507 q 420 507 477 438 q 534 370 534 279 q 534 199 477 123 q 420 46 344 10 q 267 -26 191 -26 q 157 -26 113 -13 q 69 0 34 31 q 0 62 0 84 q 0 92 6 98 q 12 103 19 103 q 31 103 50 82 q 83 44 117 34 q 151 23 187 23 q 243 23 300 56 q 358 89 391 150 q 425 211 425 293 q 425 319 409 360 q 393 401 363 427 q 333 452 292 452 q 262 452 236 439 q 210 427 204 427 q 192 427 192 439 q 192 451 203 466 l 292 596 q 297 604 297 613 q 297 623 288 623 l 147 623 q 134 623 121 606 q 108 590 98 590 q 80 590 80 628 q 80 644 83 658 q 86 672 86 678 q 86 707 118 707 l 407 707 q 446 707 446 691 q 446 684 441 678 q 437 672 411 661 q 386 650 374 632 z"},";":{"x_min":0,"x_max":140,"ha":140,"o":"m 68 337 q 89 337 104 322 q 118 307 118 286 q 118 265 104 251 q 89 238 68 238 q 47 238 31 254 q 16 270 16 291 q 16 308 32 323 q 48 337 68 337 z m 67 93 q 90 93 107 72 q 125 51 125 16 q 125 -15 93 -78 q 62 -141 44 -141 q 35 -141 35 -130 q 35 -127 53 -91 q 72 -54 72 -30 q 72 -13 51 -3 q 29 8 22 19 q 15 31 15 44 q 15 67 29 80 q 43 93 67 93 z"},"J":{"x_min":0,"x_max":401,"ha":401,"o":"m 220 614 q 219 632 210 644 q 200 655 173 658 q 146 661 137 665 q 129 670 129 686 q 129 703 156 703 q 162 703 195 698 q 228 692 259 692 q 276 692 307 697 q 338 702 360 702 q 392 702 392 680 q 392 672 387 668 q 381 663 359 662 q 333 660 322 653 q 302 642 303 609 l 314 130 q 314 73 263 25 q 211 -22 152 -22 q 78 -22 41 10 q 3 41 3 69 q 3 107 33 107 q 51 107 63 94 q 74 81 74 71 q 74 57 94 40 q 114 24 138 24 q 169 24 199 51 q 229 78 228 124 z"},"V":{"x_min":0,"x_max":667,"ha":667,"o":"m 514 604 q 520 621 520 630 q 520 652 482 655 q 461 657 453 662 q 445 667 445 682 q 445 691 453 698 q 461 705 477 705 q 491 705 515 700 q 540 695 566 695 q 584 695 605 700 q 625 705 641 705 q 658 705 667 698 q 677 690 677 678 q 677 662 664 657 q 652 652 633 652 q 609 652 591 636 q 573 621 558 579 l 361 15 q 360 12 357 1 q 354 -9 350 -13 q 345 -17 338 -17 q 332 -17 327 -12 q 322 -7 318 4 q 314 16 313 18 l 94 601 q 75 651 36 651 q 14 651 2 660 q -10 668 -10 683 q -10 704 22 704 q 44 704 76 698 q 107 691 118 691 q 128 691 167 698 q 205 706 214 706 q 267 706 267 679 q 267 664 258 657 q 249 651 227 651 q 181 651 181 623 q 181 613 187 598 l 350 171 l 356 160 l 362 170 z"},"\"":{"x_min":0,"x_max":226,"ha":226,"o":"m 97 699 q 108 699 115 690 q 123 681 123 671 q 123 656 107 643 q 99 637 94 621 q 89 605 87 561 q 85 516 79 506 q 73 497 68 497 q 62 497 59 507 q 56 517 55 555 q 55 594 55 601 q 54 608 50 627 q 46 646 46 655 q 46 676 65 688 q 84 699 97 699 z m 198 699 q 210 699 217 690 q 224 681 224 671 q 224 656 208 643 q 200 637 195 621 q 190 605 188 561 q 187 516 181 506 q 175 496 169 496 q 162 496 159 509 q 157 521 156 561 q 156 600 151 622 q 146 645 146 653 q 146 666 152 673 q 157 681 172 690 q 187 699 198 699 z"},"7":{"x_min":0,"x_max":490,"ha":490,"o":"m 468 706 q 490 706 490 692 q 490 682 475 667 q 445 640 426 608 q 327 444 285 309 q 243 174 243 96 q 243 66 253 56 q 264 45 283 39 l 286 38 l 293 37 q 335 32 335 12 q 335 -12 294 -12 q 283 -12 264 -8 q 244 -3 232 -3 q 219 -3 200 -6 q 180 -10 171 -10 q 160 -10 154 -4 q 147 2 147 24 q 147 103 178 211 q 209 318 249 401 q 289 483 330 548 q 370 612 370 616 q 370 622 350 622 q 342 622 320 620 q 297 619 284 619 l 78 619 q 63 619 56 613 q 50 607 50 585 q 50 555 26 555 q 0 555 0 600 l 0 681 q 0 706 23 706 z"},"S":{"x_min":0,"x_max":457,"ha":457,"o":"m 114 575 q 114 551 131 526 q 148 500 217 451 q 351 357 395 299 q 438 241 438 176 q 438 83 367 31 q 295 -20 209 -20 q 149 -20 85 5 q 21 30 21 58 q 21 65 23 84 q 24 103 24 131 q 24 141 23 155 q 21 168 21 173 q 21 191 42 191 q 66 191 69 155 q 75 95 111 62 q 147 29 211 29 q 276 29 318 65 q 360 102 360 160 q 360 195 332 235 q 303 274 182 360 q 132 396 104 420 q 75 445 56 479 q 37 512 37 555 q 37 625 100 671 q 163 717 246 717 q 292 717 346 694 q 399 670 399 639 q 399 635 399 625 q 398 616 398 597 q 398 592 400 578 q 400 546 378 546 q 371 546 363 553 q 355 561 355 570 q 355 618 323 643 q 291 669 244 669 q 190 669 152 640 q 114 610 114 575 z"},"}":{"x_min":0,"x_max":280,"ha":280,"o":"m 254 313 q 222 301 202 275 q 182 250 182 214 l 182 82 q 182 30 174 0 q 165 -30 148 -54 q 130 -79 105 -100 q 79 -121 56 -134 q 34 -146 27 -146 q 20 -146 20 -127 q 20 -125 27 -118 q 61 -84 73 -37 q 85 11 85 67 l 85 217 q 85 255 110 284 q 135 313 176 328 q 135 343 110 371 q 85 399 85 435 l 85 585 q 85 641 73 689 q 61 736 27 770 l 20 779 q 20 798 27 798 q 35 798 67 780 q 98 761 131 728 q 163 694 177 640 q 182 619 182 570 l 182 438 q 182 404 202 379 q 222 354 254 343 z"},"Z":{"x_min":0,"x_max":530,"ha":530,"o":"m 422 41 q 434 41 441 49 q 448 56 449 83 q 450 110 456 117 q 462 124 472 124 q 493 124 505 94 q 516 63 516 27 q 516 8 506 -2 q 497 -12 470 -12 q 464 -12 453 -11 q 442 -11 437 -11 l 50 -11 q 28 -11 21 -6 q 15 0 15 10 q 15 19 22 31 q 29 44 31 47 l 323 612 q 324 614 330 624 q 335 634 335 642 q 335 661 298 661 l 120 661 q 104 661 90 654 q 77 646 70 623 q 63 599 57 594 q 52 590 44 590 q 33 590 27 601 q 21 612 21 627 q 21 674 32 692 q 44 710 66 710 l 440 710 q 461 710 461 690 q 461 679 446 650 l 153 80 q 145 64 145 57 q 145 46 155 44 q 164 41 184 41 z"},"x":{"x_min":0,"x_max":425,"ha":425,"o":"m 327 81 q 352 51 365 42 q 378 33 398 29 q 417 25 423 22 q 428 19 428 8 q 428 1 420 -4 q 413 -9 398 -9 q 389 -9 369 -6 q 349 -3 339 -3 q 303 -3 280 -6 q 256 -10 253 -10 q 225 -10 225 7 q 225 14 229 19 q 233 24 246 27 q 260 29 260 35 q 260 42 257 49 q 255 56 241 72 l 198 123 q 195 127 192 127 q 188 127 180 118 l 127 55 q 121 48 121 41 q 121 29 133 29 q 141 29 151 23 q 161 17 161 7 q 161 -2 157 -6 q 153 -10 138 -10 q 127 -10 109 -7 q 91 -4 70 -4 q 49 -4 35 -8 q 21 -11 12 -11 q -10 -11 -10 6 q -10 22 18 27 q 46 32 57 39 q 67 46 95 80 l 159 157 q 162 161 162 164 q 162 167 158 172 l 105 235 l 101 240 q 65 289 29 289 q 1 289 1 310 q 1 317 8 322 q 16 327 30 327 q 40 327 58 323 q 76 320 86 320 q 123 320 148 324 q 173 328 177 328 q 201 328 201 309 q 201 302 197 297 q 193 292 180 289 q 166 287 166 281 q 166 276 180 260 l 202 235 q 210 225 213 225 q 216 225 222 232 l 252 267 q 260 276 260 281 q 260 287 250 287 q 242 287 234 293 q 225 298 225 308 q 225 328 253 328 q 264 328 278 324 q 292 321 313 321 q 333 321 348 324 q 362 327 371 327 q 389 327 389 309 q 389 299 384 296 q 379 293 360 290 q 341 288 323 279 q 306 270 283 242 l 245 197 q 241 192 241 189 q 241 186 246 180 z"},")":{"x_min":0,"x_max":237,"ha":237,"o":"m 29 777 q 46 777 96 719 q 146 660 184 556 q 221 453 221 327 q 221 196 184 92 q 147 -12 98 -68 q 49 -124 31 -124 q 27 -124 27 -118 q 27 -111 42 -80 q 93 27 112 127 q 130 228 130 329 q 130 440 110 545 q 90 649 37 747 q 25 769 25 773 q 25 777 29 777 z"},"&":{"x_min":0,"x_max":895,"ha":895,"o":"m 324 483 q 327 479 336 470 q 346 461 346 451 q 346 440 330 440 q 326 440 312 442 q 299 443 291 443 q 244 443 183 393 q 122 342 122 237 q 122 152 181 86 q 239 20 318 20 q 396 20 466 73 q 536 127 536 203 q 536 260 503 294 q 471 327 434 327 q 405 327 385 308 q 365 290 365 259 q 365 238 385 223 q 396 215 396 210 q 396 203 389 198 q 381 192 374 192 q 356 192 342 212 q 327 231 327 261 q 327 297 344 329 q 361 362 406 396 q 450 430 506 445 q 562 460 654 460 q 737 460 788 478 q 840 496 840 534 q 840 539 835 548 q 830 557 830 562 q 830 579 851 579 q 863 579 871 565 q 879 551 879 535 q 879 505 854 474 q 830 443 786 419 q 742 396 688 388 q 634 380 539 380 q 485 380 471 374 q 457 369 457 365 q 457 362 466 362 q 509 362 548 316 q 586 270 586 201 q 586 141 547 92 q 508 42 441 13 q 375 -16 311 -16 q 184 -16 102 60 q 19 136 19 249 q 19 337 90 406 q 160 475 253 483 q 262 484 262 487 q 262 490 255 499 l 124 683 q 120 689 120 693 q 120 703 138 705 q 157 707 204 707 l 430 707 q 449 707 458 704 q 468 701 473 689 q 478 676 478 649 q 478 604 471 594 q 464 584 451 584 q 438 584 428 605 q 419 624 408 624 l 273 624 q 244 624 244 606 q 244 598 251 588 z"},"_":{"x_min":0,"x_max":500,"ha":500,"o":"m 509 -216 l -8 -216 l -8 -175 l 509 -175 z"},"v":{"x_min":0,"x_max":449,"ha":449,"o":"m 321 252 q 326 262 326 275 q 326 290 309 294 q 292 298 286 302 q 280 306 280 316 q 280 329 286 332 q 292 336 306 336 q 316 336 332 333 q 347 329 368 329 q 389 329 407 333 q 425 337 434 337 q 459 337 459 320 q 459 307 455 304 q 452 302 428 297 q 404 292 396 287 q 387 283 378 271 q 369 258 356 232 l 251 10 q 250 8 248 2 q 240 -19 228 -19 q 218 -19 208 2 l 88 248 q 78 268 60 281 q 42 294 26 294 q 9 294 0 300 q -10 306 -10 315 q -10 335 15 335 q 39 335 62 331 q 84 326 97 326 q 112 326 139 331 q 166 335 178 335 q 196 335 203 330 q 211 326 211 315 q 211 309 206 304 q 201 299 184 295 q 167 291 162 287 q 158 283 158 278 q 158 273 168 252 l 235 112 q 240 101 244 101 q 250 101 256 115 z"},"O":{"x_min":0,"x_max":759,"ha":759,"o":"m 381 719 q 552 719 649 602 q 747 485 747 339 q 747 231 694 142 q 641 52 556 16 q 471 -21 375 -21 q 219 -21 116 87 q 12 196 12 363 q 12 450 58 536 q 104 621 188 670 q 271 719 381 719 z m 378 26 q 470 26 531 66 q 592 107 619 166 q 645 226 645 324 q 645 495 574 585 q 502 675 381 675 q 255 675 185 582 q 114 490 114 363 q 114 26 378 26 z"},"(":{"x_min":0,"x_max":237,"ha":237,"o":"m 219 777 q 223 777 223 773 q 223 769 212 750 q 160 660 140 549 q 120 438 120 314 q 120 217 138 120 q 155 22 206 -82 q 221 -113 221 -120 q 221 -127 216 -127 q 198 -127 149 -72 q 101 -17 64 88 q 28 193 28 330 q 28 455 65 558 q 103 661 152 719 q 202 777 219 777 z"},"C":{"x_min":0,"x_max":669,"ha":669,"o":"m 643 146 q 650 146 656 141 q 661 135 661 131 q 661 114 622 76 q 583 39 519 12 q 456 -14 385 -14 q 271 -14 186 36 q 102 85 57 174 q 12 263 12 359 q 12 455 56 538 q 100 622 181 669 q 262 716 369 716 q 438 716 495 698 q 553 680 587 655 q 620 629 620 616 q 620 596 619 579 q 618 562 618 559 q 618 553 622 541 q 625 529 625 519 q 625 503 605 503 q 599 503 592 509 q 586 515 574 542 q 548 599 518 625 q 466 670 372 670 q 251 670 184 582 q 117 495 117 356 q 117 205 190 117 q 263 30 386 30 q 418 30 486 51 q 554 72 621 133 q 635 146 643 146 z"},"W":{"x_min":0,"x_max":962,"ha":962,"o":"m 672 179 l 678 168 q 681 168 684 180 l 813 598 q 818 615 818 625 q 818 652 787 652 q 773 652 763 659 q 753 667 753 677 q 753 689 764 696 q 774 703 790 703 q 797 703 817 699 q 836 696 857 696 q 870 696 898 699 q 925 703 939 703 q 972 703 972 679 q 972 667 962 660 q 951 654 941 654 q 918 654 897 637 q 876 620 867 592 q 762 238 685 -3 l 679 -23 q 675 -39 662 -39 q 655 -39 649 -33 q 644 -27 636 -5 l 480 467 q 475 483 472 483 q 470 483 465 467 l 326 -5 q 319 -28 314 -33 q 309 -38 302 -38 q 292 -38 288 -31 q 284 -25 277 -3 l 79 595 q 70 622 58 635 q 46 649 24 652 q 3 656 -3 660 q -10 665 -10 678 q -10 703 25 703 q 37 703 57 699 q 78 695 105 695 q 125 695 149 699 q 173 704 181 704 q 199 704 210 697 q 222 689 222 677 q 222 653 188 652 q 162 651 162 634 q 162 626 169 605 q 206 509 310 184 q 314 173 316 173 q 319 173 322 183 l 469 677 q 474 693 477 698 q 480 703 488 703 q 499 703 506 682 z"},"A":{"x_min":0,"x_max":724,"ha":724,"o":"m 357 528 q 347 550 342 550 q 336 550 325 519 l 220 280 l 130 79 q 126 70 126 63 q 126 56 132 50 q 137 44 158 38 q 179 32 185 26 q 190 21 190 13 q 190 -9 161 -9 q 154 -9 127 -5 q 101 -1 83 -1 q 65 -1 46 -5 q 27 -9 18 -9 q 6 -9 -2 -2 q -10 4 -10 13 q -10 26 -5 30 q 0 34 13 36 q 51 42 66 64 q 80 86 140 222 l 258 485 q 301 580 314 611 q 326 642 326 659 q 326 665 322 680 q 318 696 318 703 q 318 717 333 717 q 358 717 373 696 q 388 675 414 617 l 549 311 q 623 144 642 104 q 662 65 674 53 q 687 42 704 37 q 721 31 728 26 q 734 21 734 9 q 734 -8 703 -8 q 693 -8 666 -5 q 639 -2 612 -2 q 585 -2 556 -5 q 527 -9 516 -9 q 500 -9 490 -3 q 480 2 480 12 q 480 21 486 26 q 492 31 517 34 q 543 36 551 45 q 558 53 558 66 q 558 80 530 141 q 502 203 496 207 q 489 211 469 211 l 251 211 q 238 211 228 219 q 218 227 218 238 q 218 246 226 252 q 234 259 244 259 l 454 259 q 472 259 472 265 q 472 269 465 284 z"},"f":{"x_min":0,"x_max":272,"ha":272,"o":"m 87 472 q 87 527 98 562 q 109 597 136 627 q 163 657 197 678 q 232 700 242 700 q 249 700 249 681 q 249 679 240 671 q 196 639 180 591 q 164 544 164 487 l 164 328 q 164 322 172 322 q 175 322 188 324 q 202 325 214 325 q 242 325 242 306 q 242 297 233 292 q 224 286 211 286 q 164 286 164 248 l 164 78 q 164 54 168 48 q 173 42 180 36 q 187 29 210 26 q 233 23 239 19 q 244 14 244 6 q 244 -13 216 -13 q 199 -13 174 -8 q 149 -3 124 -3 q 108 -3 80 -8 q 51 -13 44 -13 q 13 -13 13 8 q 13 15 18 19 q 22 23 43 26 q 64 29 74 35 q 83 42 85 52 q 87 62 87 94 l 87 251 q 87 286 43 286 q 10 286 10 307 q 10 326 44 326 q 56 326 67 325 q 79 323 81 323 q 87 323 87 329 z"},"Q":{"x_min":0,"x_max":764,"ha":764,"o":"m 763 -119 q 767 -119 771 -125 q 774 -130 774 -135 q 774 -159 738 -178 q 702 -197 662 -197 q 628 -197 590 -174 q 551 -152 528 -113 q 504 -74 482 -16 q 479 -10 475 -10 l 471 -10 q 435 -17 389 -17 q 278 -17 194 29 q 111 75 62 164 q 12 253 12 363 q 12 429 50 518 q 88 606 172 662 q 255 718 381 718 q 540 718 628 634 q 752 514 752 346 q 752 243 702 150 q 651 57 572 22 q 558 15 558 7 q 558 0 580 -47 q 603 -94 631 -118 q 660 -141 695 -141 q 709 -141 732 -130 q 754 -119 763 -119 z m 268 65 l 268 78 q 268 124 298 155 q 328 185 376 185 q 425 185 465 156 q 505 127 532 76 q 535 71 538 71 q 546 71 576 101 q 606 131 627 191 q 648 251 648 332 q 648 491 572 582 q 497 672 381 672 q 270 672 194 584 q 118 496 118 360 q 118 278 133 221 q 147 164 173 128 q 200 92 231 75 q 262 57 267 57 l 269 60 z m 457 45 q 457 58 427 98 q 397 138 357 138 q 307 138 307 81 q 307 61 312 52 q 316 43 336 39 q 355 35 401 35 q 429 35 449 39 q 457 40 457 45 z"},"w":{"x_min":0,"x_max":643,"ha":643,"o":"m 532 252 q 543 276 543 281 q 543 289 538 293 q 534 298 516 299 q 498 301 493 305 q 489 309 489 316 q 489 328 495 332 q 502 337 517 337 q 521 337 541 333 q 560 330 576 330 q 580 330 598 333 q 616 336 630 336 q 653 336 653 319 q 653 302 621 298 q 595 295 576 248 l 480 13 q 469 -14 457 -14 q 445 -14 440 -1 q 435 13 433 15 l 336 190 q 328 204 323 204 q 318 204 312 190 l 236 10 l 233 4 q 225 -17 213 -17 q 206 -17 201 -11 q 197 -6 190 8 l 73 248 q 51 294 26 294 q 9 294 0 300 q -10 306 -10 315 q -10 335 15 335 q 39 335 59 331 q 79 326 91 326 q 97 326 119 331 q 141 335 146 335 q 164 335 172 330 q 179 326 179 315 q 179 303 161 297 q 143 291 143 278 q 143 272 153 252 l 218 121 q 223 110 228 110 q 232 110 237 121 l 306 283 q 318 311 323 321 q 329 330 336 330 q 342 330 353 312 l 457 121 q 461 113 465 113 q 470 113 473 121 z"},"-":{"x_min":0,"x_max":401,"ha":401,"o":"m 284 207 q 299 207 313 214 q 328 220 343 240 q 358 260 366 260 q 371 260 375 255 q 380 251 380 245 q 380 234 368 220 q 357 205 348 179 q 338 153 332 150 q 326 147 298 147 l 119 147 q 102 147 84 141 q 67 135 49 114 q 36 99 27 99 q 16 99 16 109 q 16 117 33 137 q 49 158 56 177 q 63 197 71 202 q 78 207 101 207 z"},"E":{"x_min":0,"x_max":511,"ha":511,"o":"m 401 34 q 426 34 439 47 q 452 61 452 81 q 452 100 460 111 q 469 122 480 122 q 491 122 499 111 q 506 101 506 84 q 506 67 508 47 q 509 27 509 20 q 509 0 504 -6 q 498 -12 475 -12 l 80 -12 q 38 -12 23 -6 q 7 0 7 13 q 7 33 35 33 q 71 33 82 45 q 92 56 92 81 l 92 528 q 92 600 90 624 q 87 647 78 654 q 68 660 39 660 q 21 660 11 667 q 2 673 2 684 q 2 693 10 700 q 19 707 31 707 l 407 707 q 430 707 437 698 q 443 688 447 670 q 450 652 450 611 q 450 592 434 592 q 424 592 417 597 q 410 603 402 626 q 393 648 384 655 q 375 661 363 661 l 229 661 q 196 661 187 652 q 178 642 178 623 l 178 520 q 178 484 188 472 q 198 461 228 461 l 357 461 q 374 461 382 474 q 390 487 390 503 q 390 511 397 517 q 404 522 413 522 q 423 522 429 516 q 436 510 436 498 q 436 488 432 469 q 429 449 429 437 q 429 418 433 398 q 438 377 438 373 q 438 362 430 354 q 423 347 413 347 q 403 347 396 356 q 389 365 389 381 q 389 399 379 407 q 370 415 347 415 l 218 415 q 201 415 189 408 q 178 401 178 387 l 178 75 q 178 51 191 42 q 203 34 233 34 z"},"s":{"x_min":0,"x_max":303,"ha":303,"o":"m 105 274 q 105 263 115 251 q 126 239 183 209 q 239 180 259 151 q 279 123 279 91 q 279 42 238 12 q 196 -17 131 -17 q 95 -17 59 -1 q 23 15 23 31 q 23 44 21 63 q 19 83 19 94 q 19 118 41 118 q 47 118 53 113 q 58 107 70 77 q 82 46 98 35 q 115 24 136 24 q 162 24 180 41 q 198 58 198 85 q 198 103 186 118 q 174 133 119 159 q 65 185 49 210 q 32 234 32 263 q 32 301 68 327 q 103 353 150 353 q 189 353 226 340 q 263 326 263 311 q 263 302 265 288 q 267 274 267 266 q 267 256 262 248 q 257 240 249 240 q 238 240 233 246 q 229 251 225 266 q 221 280 212 288 q 203 296 188 303 q 174 310 156 310 q 138 310 121 299 q 105 287 105 274 z"},">":{"x_min":0,"x_max":580,"ha":580,"o":"m 497 273 l 165 106 q 139 93 130 93 q 125 93 113 97 q 101 101 89 104 q 76 107 76 116 q 76 120 81 124 l 86 130 q 96 140 103 145 q 110 149 134 162 l 372 283 q 390 292 390 299 q 390 302 385 305 q 379 308 376 309 l 134 433 q 110 446 103 451 q 95 456 89 462 q 83 468 80 471 q 76 475 76 479 q 76 488 89 491 q 101 494 113 498 q 124 502 129 502 q 139 502 165 489 l 494 324 q 516 312 516 298 q 516 283 497 273 z"},"l":{"x_min":0,"x_max":269,"ha":269,"o":"m 163 66 q 163 53 170 43 q 177 34 200 30 q 224 26 229 21 q 234 15 234 6 q 234 -10 210 -10 q 195 -10 167 -6 q 138 -3 123 -3 q 109 -3 83 -6 q 57 -10 43 -10 q 23 -10 18 -5 q 12 -1 12 7 q 12 15 17 20 q 21 25 46 29 q 71 33 78 45 q 86 58 86 74 l 86 601 q 86 618 78 631 q 70 644 46 650 q 21 656 17 662 q 12 667 12 675 q 12 682 20 687 q 28 691 37 691 q 45 691 60 688 q 76 685 83 685 q 91 685 108 688 q 125 691 133 691 q 148 691 156 683 q 163 674 163 653 z"},"8":{"x_min":0,"x_max":502,"ha":502,"o":"m 341 438 l 346 433 q 423 382 455 331 q 487 280 487 207 q 487 106 419 47 q 352 -13 251 -13 q 158 -13 86 49 q 15 110 15 207 q 15 257 45 304 q 74 352 140 405 q 146 410 146 412 q 146 415 140 420 q 98 457 81 490 q 65 522 65 562 q 65 634 119 678 q 172 723 247 723 q 325 723 371 681 q 416 639 416 562 q 416 531 403 506 q 390 480 345 443 z m 261 470 q 348 506 348 575 q 348 615 320 643 q 292 672 253 672 q 211 672 184 645 q 157 619 157 579 q 157 505 261 470 z m 210 374 q 132 328 102 287 q 72 246 72 199 q 72 128 120 84 q 169 39 235 39 q 285 39 335 82 q 385 125 385 190 q 385 261 330 309 q 298 336 256 354 q 215 372 210 374 z"},"\\":{"x_min":0,"x_max":570,"ha":570,"o":"m 32 777 q 49 777 54 775 q 59 774 62 769 l 592 -94 q 597 -102 597 -106 q 597 -113 577 -113 q 561 -113 554 -110 q 548 -107 540 -94 q 248 388 173 506 l 21 746 q 9 765 9 771 q 9 777 32 777 z"},"e":{"x_min":0,"x_max":437,"ha":437,"o":"m 319 189 q 330 189 334 193 q 338 197 338 207 q 338 245 309 277 q 280 310 221 310 q 181 310 137 271 q 94 233 94 162 q 94 110 140 69 q 186 28 242 28 q 285 28 335 55 q 354 65 360 65 q 369 65 374 60 q 379 55 379 48 q 379 30 325 5 q 271 -21 214 -21 q 129 -21 72 37 q 14 94 14 174 q 14 247 77 298 q 141 350 219 350 q 321 350 372 298 q 423 246 423 173 q 423 157 415 154 q 407 150 386 150 l 162 150 q 135 150 135 170 q 135 189 163 189 z"},"b":{"x_min":0,"x_max":488,"ha":488,"o":"m 164 14 q 161 11 158 4 q 155 -3 151 -6 q 147 -10 136 -10 q 128 -10 110 -5 q 92 -1 82 -1 q 72 -1 53 -5 q 35 -10 26 -10 q 15 -10 6 -4 q -2 1 -2 11 q -2 18 3 22 q 8 26 37 32 q 66 38 76 55 q 87 71 87 94 l 87 596 q 87 637 68 653 q 57 662 33 666 q 10 669 5 675 q 0 680 0 688 q 0 696 10 701 q 19 706 28 706 q 38 706 57 702 q 76 698 85 698 q 94 698 110 701 q 126 704 134 704 q 148 704 155 696 q 162 688 162 666 l 162 95 q 162 65 199 42 q 237 18 270 18 q 308 18 351 50 q 393 83 393 157 q 393 215 359 257 q 326 298 272 298 q 251 298 230 286 q 208 275 201 275 q 195 275 189 280 q 183 285 183 290 q 183 312 221 329 q 258 345 287 345 q 367 345 421 288 q 474 230 474 148 q 474 72 418 23 q 362 -26 283 -26 q 243 -26 182 6 z"},"%":{"x_min":0,"x_max":993,"ha":993,"o":"m 697 717 q 706 731 712 735 q 718 738 735 738 q 757 738 757 732 q 757 729 755 726 q 572 438 429 196 l 296 -28 q 288 -41 281 -44 q 275 -47 259 -47 q 239 -47 239 -41 q 239 -37 244 -28 q 366 181 481 366 l 657 652 q 589 597 540 597 q 496 597 441 625 q 464 581 464 521 q 464 434 407 381 q 350 328 267 328 q 188 328 129 378 q 70 429 70 530 q 70 611 125 669 q 181 727 274 727 q 323 727 371 699 q 477 675 537 675 q 633 675 697 717 z m 266 354 q 320 354 350 401 q 380 448 380 535 q 380 611 350 656 q 320 701 271 701 q 220 701 188 646 q 157 591 157 516 q 157 449 186 402 q 215 354 266 354 z m 751 400 q 822 400 882 346 q 941 292 941 194 q 941 107 884 54 q 827 1 744 1 q 665 1 606 52 q 547 102 547 203 q 547 284 602 342 q 658 400 751 400 z m 743 27 q 797 27 827 74 q 857 121 857 208 q 857 284 827 329 q 797 374 748 374 q 697 374 665 319 q 634 264 634 189 q 634 123 663 75 q 692 27 743 27 z"},"m":{"x_min":0,"x_max":692,"ha":692,"o":"m 311 255 q 311 266 302 273 q 292 281 281 281 q 256 281 223 253 q 204 236 195 236 q 182 236 182 247 q 182 272 228 305 q 273 338 310 338 q 341 338 365 316 q 388 293 388 263 l 387 66 q 387 51 397 41 q 408 31 422 31 q 447 31 447 11 q 447 -6 421 -6 q 418 -6 392 -3 q 366 0 348 0 q 319 0 299 -3 q 279 -7 273 -7 q 264 -7 258 -1 q 251 4 251 13 q 251 27 268 27 q 284 27 297 37 q 311 47 311 67 z m 534 255 q 534 266 525 273 q 515 281 504 281 q 484 281 456 258 q 427 236 418 236 q 412 236 407 240 q 403 243 403 248 q 403 270 446 303 q 489 337 533 337 q 585 337 604 293 q 611 280 611 149 l 610 66 q 610 50 618 42 q 626 35 644 31 q 661 28 664 23 q 668 19 668 12 q 668 -6 644 -6 q 641 -6 615 -3 q 589 0 571 0 q 553 0 531 -3 q 510 -7 496 -7 q 487 -7 481 -1 q 474 4 474 13 q 474 28 497 31 q 520 33 527 42 q 534 52 534 67 z m 89 254 q 89 271 78 281 q 68 291 58 291 q 29 291 29 309 q 29 330 50 330 q 56 330 73 327 q 89 323 98 323 q 110 323 122 326 q 135 329 139 329 q 152 329 157 323 q 161 316 163 269 q 165 222 165 160 l 164 75 q 164 53 167 47 q 169 42 178 36 q 188 31 200 29 q 212 28 218 25 q 223 21 223 11 q 223 -6 198 -6 q 180 -6 162 -2 q 143 1 125 1 q 110 1 89 -2 q 68 -6 57 -6 q 30 -6 30 10 q 30 21 35 25 q 40 29 54 31 q 67 32 76 38 q 84 44 87 54 q 89 64 89 94 z"},"#":{"x_min":0,"x_max":810,"ha":810,"o":"m 571 535 l 675 535 q 690 535 706 540 q 722 545 742 562 q 761 578 770 578 q 780 578 780 567 q 780 559 767 526 q 754 494 730 474 q 705 455 668 455 l 550 455 l 505 289 l 609 289 q 625 289 640 294 q 656 300 676 316 q 695 332 704 332 q 714 332 714 321 q 714 312 701 280 q 688 248 664 228 q 639 209 603 209 l 484 209 l 433 15 q 430 7 422 0 q 414 -6 405 -6 q 391 -6 391 6 q 391 10 393 15 l 444 209 l 273 209 l 222 15 q 219 7 211 0 q 203 -6 194 -6 q 180 -6 180 6 q 180 10 182 15 l 233 209 l 140 209 q 122 209 104 204 q 85 200 66 185 q 46 171 38 171 q 28 171 28 178 q 28 184 41 216 q 55 248 80 269 q 106 289 143 289 l 254 289 l 299 455 l 206 455 q 188 455 170 450 q 151 446 132 431 q 112 417 104 417 q 94 417 94 424 q 94 431 106 462 q 119 493 145 514 q 171 535 208 535 l 320 535 l 367 705 q 369 713 376 718 q 383 723 390 723 q 397 723 402 718 q 406 713 406 706 l 405 702 l 360 535 l 531 535 l 578 705 q 580 713 587 718 q 594 723 601 723 q 618 723 618 708 l 618 705 z m 510 455 l 339 455 l 294 289 l 465 289 z"},",":{"x_min":0,"x_max":140,"ha":140,"o":"m 66 95 q 89 95 107 73 q 125 52 125 16 q 125 -14 92 -77 q 60 -139 44 -139 q 35 -139 35 -130 q 35 -127 53 -89 q 72 -51 72 -30 q 72 -13 51 -3 q 29 8 22 19 q 15 31 15 44 q 15 68 29 82 q 43 95 66 95 z"},"n":{"x_min":0,"x_max":469,"ha":469,"o":"m 387 66 q 387 45 394 38 q 401 32 420 28 q 438 23 438 12 q 438 -3 420 -3 q 417 -3 391 -1 q 365 0 347 0 q 318 0 298 -3 q 278 -7 272 -7 q 263 -7 256 -1 q 248 5 248 13 q 248 20 254 25 q 261 31 269 31 q 285 31 297 40 q 309 49 309 67 q 309 185 311 213 q 312 241 312 244 q 312 282 277 282 q 262 282 234 259 q 206 236 194 236 q 190 236 185 241 q 180 246 180 251 q 180 268 225 303 q 270 339 313 339 q 338 339 357 326 q 375 313 382 293 q 388 274 388 238 l 387 207 z m 88 254 q 88 272 81 281 q 74 290 51 294 q 29 298 29 314 q 29 321 37 327 q 44 334 57 334 q 62 334 76 331 q 89 327 98 327 q 104 327 123 330 q 142 333 147 333 q 157 333 161 325 q 165 317 165 292 q 166 252 166 206 l 163 67 q 163 52 166 48 q 168 45 177 40 q 186 34 200 31 q 214 28 218 23 q 222 18 222 11 q 222 -5 197 -5 q 179 -5 161 -2 q 142 1 124 1 q 109 1 86 -1 q 63 -4 52 -4 q 27 -4 27 14 q 27 22 31 27 q 36 32 50 33 q 67 34 71 38 q 82 49 85 58 q 88 67 88 94 z"},"h":{"x_min":0,"x_max":492,"ha":492,"o":"m 164 66 q 164 52 171 43 q 179 33 203 30 q 228 26 233 21 q 239 15 239 6 q 239 -10 211 -10 q 196 -10 167 -7 q 139 -4 124 -4 q 110 -4 84 -7 q 58 -10 44 -10 q 10 -10 10 8 q 10 16 15 21 q 20 26 45 29 q 71 32 79 47 q 87 62 87 81 l 87 608 q 87 620 79 630 q 70 640 46 648 q 21 656 17 661 q 12 665 12 670 q 12 687 41 687 q 49 687 66 685 q 83 683 92 683 q 101 683 116 688 q 132 692 140 692 q 151 692 157 686 q 164 679 164 653 z m 409 73 q 409 56 417 43 q 424 30 448 27 q 473 23 477 18 q 482 13 482 5 q 482 -6 475 -9 q 468 -11 447 -11 q 434 -11 408 -9 q 382 -7 370 -7 q 356 -7 330 -10 q 303 -12 289 -12 q 258 -12 258 9 q 258 16 263 21 q 268 25 292 28 q 317 31 325 43 q 333 55 333 72 q 333 97 332 147 q 331 197 331 222 q 331 245 318 258 q 304 270 280 270 q 255 270 224 247 q 205 232 195 232 q 190 232 185 237 q 179 243 179 248 q 179 273 230 303 q 281 334 312 334 q 342 334 369 316 q 396 299 406 273 q 411 261 411 192 q 411 163 410 122 q 409 81 409 73 z"},"z":{"x_min":0,"x_max":290,"ha":290,"o":"m 200 29 q 220 29 220 47 l 220 60 q 220 87 239 87 q 251 87 257 76 q 263 64 263 29 q 263 6 260 0 q 257 -6 244 -7 q 231 -9 192 -9 l 46 -9 q 18 -9 18 8 q 18 21 32 46 l 143 251 q 151 267 151 276 q 151 287 145 289 q 140 291 122 291 l 93 291 q 66 291 61 288 q 56 284 51 264 q 45 243 30 243 q 13 243 13 267 l 12 302 q 12 318 17 323 q 21 329 31 329 l 242 329 q 248 329 252 324 q 257 320 257 314 q 257 304 244 280 l 127 67 q 121 56 121 46 q 121 29 140 29 z"},"B":{"x_min":0,"x_max":625,"ha":625,"o":"m 307 703 q 376 703 434 658 q 492 614 492 542 q 492 503 466 474 q 439 444 393 428 l 386 423 l 393 420 q 482 405 546 343 q 609 280 609 197 q 609 107 532 49 q 456 -9 312 -9 q 83 -9 48 -7 q 12 -5 12 13 q 12 22 17 28 q 22 35 47 38 q 72 41 80 52 q 87 64 87 80 l 87 617 q 87 636 80 648 q 73 659 49 659 q 24 659 18 666 q 11 672 11 683 q 11 692 21 698 q 30 703 44 703 z m 168 488 q 168 451 189 443 q 209 434 255 434 q 318 434 361 466 q 403 498 403 552 q 403 603 361 632 q 320 660 255 660 q 205 660 186 650 q 168 640 168 611 z m 173 88 q 173 59 179 48 q 185 37 204 34 q 223 31 273 31 q 381 31 446 79 q 510 128 510 214 q 510 294 441 343 q 372 392 270 392 q 225 392 199 380 q 173 368 173 346 z"},"K":{"x_min":0,"x_max":639,"ha":639,"o":"m 315 428 q 306 416 306 411 q 306 407 310 401 l 561 63 q 573 51 587 45 q 602 39 611 39 q 621 39 628 34 q 636 28 636 20 q 636 7 624 0 q 612 -8 594 -8 q 556 -8 511 22 q 466 51 429 100 l 255 330 q 250 337 247 337 q 245 337 240 331 l 177 250 q 173 245 173 237 l 173 76 q 173 63 180 53 q 187 43 210 39 q 233 35 238 29 q 242 24 242 16 q 242 7 230 0 q 218 -7 194 -7 q 183 -7 162 -2 q 142 3 126 3 q 104 3 78 -3 q 52 -9 40 -9 q 28 -9 18 -2 q 7 5 7 17 q 7 25 12 31 q 17 37 43 39 q 70 41 79 56 q 87 72 87 92 l 87 603 q 87 622 79 637 q 71 651 45 654 q 19 657 14 663 q 9 668 9 677 q 9 685 20 694 q 30 703 49 703 q 67 703 94 698 q 122 692 140 692 q 152 692 170 698 q 188 704 212 704 q 231 704 243 697 q 255 690 255 680 q 255 673 249 667 q 243 662 222 656 q 200 650 192 646 q 183 642 178 630 q 173 619 173 595 l 173 331 l 174 321 l 181 328 l 398 613 q 414 633 414 642 q 414 648 409 652 q 404 655 383 657 q 362 659 355 665 q 349 670 349 679 q 349 690 360 697 q 370 704 385 704 q 398 704 419 700 q 439 697 446 697 q 455 697 478 701 q 501 705 513 705 q 526 705 535 698 q 543 690 543 679 q 543 673 539 668 q 535 664 507 656 q 479 647 464 627 z"},"R":{"x_min":0,"x_max":573,"ha":573,"o":"m 87 620 q 87 657 36 660 q 1 662 1 683 q 1 705 41 705 q 60 705 83 702 q 106 698 122 698 q 133 698 182 705 q 230 712 257 712 q 357 712 420 660 q 483 608 483 526 q 483 473 452 439 q 421 404 345 375 q 331 370 331 364 q 331 360 337 351 q 364 313 438 186 q 512 60 517 54 q 522 48 543 41 q 564 34 570 27 q 575 20 575 11 q 575 0 561 -8 q 546 -16 537 -16 q 515 -16 482 1 q 450 19 440 31 q 421 55 315 230 q 266 312 259 322 q 232 360 207 371 q 201 373 199 376 q 197 378 197 387 q 197 408 222 408 q 225 408 236 406 q 247 405 258 405 q 312 405 348 439 q 384 474 384 536 q 384 580 343 624 q 303 667 231 667 q 204 667 192 661 q 179 655 176 646 q 173 637 173 622 l 173 75 q 173 59 187 49 q 201 39 223 39 q 248 39 256 33 q 264 26 264 14 q 264 2 254 -5 q 243 -13 222 -13 q 203 -13 176 -2 q 148 9 132 9 q 118 9 91 -2 q 63 -12 48 -12 q 3 -12 3 16 q 3 27 10 32 q 18 37 47 37 q 64 37 76 45 q 87 53 87 64 z"},"T":{"x_min":0,"x_max":453,"ha":453,"o":"m 416 705 q 433 705 443 670 q 453 636 453 606 q 453 576 434 576 q 427 576 422 581 q 416 585 406 612 q 396 638 376 648 q 356 657 333 657 q 300 657 285 642 q 270 626 270 592 l 270 73 q 270 62 277 52 q 284 43 307 37 q 329 30 334 25 q 339 21 339 14 q 339 -11 312 -11 q 297 -11 269 -7 q 241 -2 227 -2 q 214 -2 190 -6 q 166 -10 153 -10 q 138 -10 127 -3 q 116 4 116 16 q 116 22 120 27 q 124 31 146 38 q 168 44 176 58 q 183 72 183 89 l 183 612 q 183 659 119 659 q 78 659 60 641 q 49 630 44 608 q 40 585 34 581 q 29 577 22 577 q 14 577 7 581 q 0 585 0 592 q 0 645 9 675 q 19 705 36 705 z"},"P":{"x_min":0,"x_max":487,"ha":487,"o":"m 87 620 q 87 659 34 659 q 1 659 1 681 q 1 702 34 702 q 53 702 77 698 q 100 694 116 694 q 130 694 164 699 q 197 705 244 705 q 359 705 421 652 q 483 599 483 526 q 483 468 454 438 q 426 407 375 383 q 325 359 243 359 q 196 359 196 387 q 196 395 202 399 q 209 404 220 404 q 223 404 236 403 q 250 402 261 402 q 314 402 348 435 q 383 467 383 526 q 383 581 340 623 q 298 665 226 665 q 200 665 189 658 q 178 651 176 637 q 173 624 173 594 l 173 75 q 173 37 222 37 q 246 37 254 31 q 262 24 262 12 q 262 -8 222 -8 q 209 -8 175 2 q 140 11 130 11 q 115 11 87 2 q 58 -8 47 -8 q 5 -8 5 17 q 5 24 10 29 q 14 33 41 35 q 68 38 78 53 q 87 69 87 91 z"},"|":{"x_min":0,"x_max":200,"ha":200,"o":"m 119 694 l 119 -216 l 79 -216 l 79 694 z"},"t":{"x_min":0,"x_max":298,"ha":298,"o":"m 163 107 q 163 66 167 54 q 171 43 181 43 q 197 43 221 61 q 244 78 252 78 q 258 78 263 72 q 268 66 268 58 q 268 44 230 13 q 191 -19 162 -19 q 85 -19 85 94 l 85 282 q 85 292 83 292 q 80 293 55 293 q 36 293 29 299 q 22 304 22 315 q 22 324 27 328 q 32 332 47 336 q 62 340 70 346 q 78 352 93 369 q 107 387 113 419 q 119 452 119 512 q 119 541 135 541 q 152 541 157 533 q 161 525 161 506 l 161 343 q 161 333 174 333 l 243 333 q 264 333 264 315 q 264 294 234 294 l 173 294 q 166 294 165 292 q 163 290 163 281 z"},"M":{"x_min":0,"x_max":764,"ha":764,"o":"m 677 96 q 677 76 686 61 q 695 45 723 40 q 751 34 757 28 q 762 22 762 14 q 762 5 755 -1 q 747 -7 733 -7 q 722 -7 691 -2 q 661 3 640 3 q 626 3 591 -2 q 556 -7 541 -7 q 510 -7 510 16 q 510 27 517 31 q 523 35 538 36 q 574 40 583 50 q 592 59 592 94 l 592 513 q 592 540 589 540 q 586 540 573 514 l 498 366 q 450 273 411 201 q 373 129 370 124 q 367 119 364 115 q 360 112 353 112 q 341 112 331 131 l 149 492 q 136 518 133 518 q 131 518 131 492 l 131 78 q 131 60 146 48 q 162 36 177 36 q 218 36 218 13 q 218 -8 182 -8 q 176 -8 149 -2 q 122 3 111 3 q 96 3 71 -3 q 45 -9 34 -9 q 19 -9 9 -1 q -1 7 -1 16 q -1 25 10 31 q 22 38 37 38 q 85 38 85 94 l 85 605 q 85 625 72 639 q 60 654 36 657 q 13 660 5 667 q -2 674 -2 684 q -2 691 8 697 q 17 703 27 703 q 37 703 52 699 q 67 695 77 695 q 86 695 100 699 q 114 703 123 703 q 135 703 142 694 q 149 685 162 657 l 272 433 l 365 247 q 371 235 374 235 q 377 235 383 246 q 534 529 594 648 q 612 684 625 693 q 638 702 653 702 q 660 702 676 700 q 692 698 700 698 q 708 698 720 701 q 732 703 735 703 q 761 703 761 682 q 761 665 736 665 q 715 665 699 650 q 684 635 680 629 q 677 622 677 597 z"},"g":{"x_min":0,"x_max":480,"ha":480,"o":"m 347 132 l 348 130 q 396 106 426 63 q 456 21 456 -29 q 456 -104 389 -152 q 321 -200 230 -200 q 136 -200 71 -151 q 5 -101 5 -21 q 5 26 36 67 q 66 108 116 129 l 119 132 l 115 137 q 91 152 77 177 q 63 202 63 231 q 63 278 104 309 q 146 340 209 348 q 217 349 220 356 q 230 379 255 407 q 279 436 298 441 q 318 447 365 447 q 393 447 393 418 q 393 401 379 390 q 366 380 344 380 q 339 380 332 381 q 325 383 320 383 q 296 383 280 370 q 264 356 264 352 q 264 347 270 347 q 329 340 363 307 q 398 273 398 223 q 398 170 350 136 z m 234 141 q 272 141 299 167 q 325 193 325 230 q 325 250 312 269 q 300 289 280 298 q 259 308 252 308 q 249 308 248 303 q 242 281 223 281 q 206 281 206 300 q 206 305 202 305 q 195 305 178 297 q 162 288 151 268 q 139 249 139 224 q 139 189 168 165 q 197 141 234 141 z m 229 -159 q 292 -159 336 -123 q 379 -86 379 -27 q 379 33 337 68 q 294 103 230 103 q 160 103 121 68 q 82 32 82 -29 q 82 -87 128 -123 q 174 -159 229 -159 z"},"j":{"x_min":0,"x_max":234,"ha":234,"o":"m 120 499 q 141 499 154 485 q 168 470 168 448 q 168 425 154 412 q 141 398 117 398 q 97 398 82 413 q 67 428 67 448 q 67 470 83 485 q 98 499 120 499 z m 162 -66 q 162 -119 127 -156 q 91 -193 39 -193 q 11 -193 -15 -179 q -41 -165 -41 -143 q -41 -132 -32 -123 q -24 -113 -14 -113 q -3 -113 2 -118 q 6 -123 11 -133 q 15 -143 21 -148 q 26 -153 40 -153 q 61 -153 73 -137 q 86 -122 86 -98 l 86 254 q 86 270 78 281 q 71 293 47 296 q 23 300 19 305 q 14 310 14 317 q 14 335 44 335 q 53 335 71 332 q 89 329 98 329 q 105 329 120 332 q 134 335 142 335 q 162 335 162 318 z"},"i":{"x_min":0,"x_max":255,"ha":255,"o":"m 127 499 q 149 499 166 483 q 182 466 182 444 q 182 424 166 410 q 150 396 128 396 q 106 396 90 411 q 74 427 74 448 q 74 469 90 484 q 106 499 127 499 z m 166 74 q 166 50 175 43 q 184 36 198 33 q 213 31 219 27 q 225 23 225 11 q 225 -5 197 -5 q 185 -5 160 -2 q 136 1 124 1 q 112 1 90 -3 q 67 -7 56 -7 q 45 -7 37 0 q 29 6 29 16 q 29 22 33 27 q 38 32 56 35 q 74 38 81 46 q 88 55 88 89 l 88 254 q 88 275 79 282 q 70 289 53 292 q 36 295 32 301 q 28 306 28 314 q 28 323 35 328 q 42 334 52 334 q 60 334 75 331 q 91 327 98 327 q 106 327 124 330 q 141 332 149 332 q 167 332 167 302 q 167 297 167 289 q 166 281 166 278 z"},"y":{"x_min":0,"x_max":483,"ha":483,"o":"m 379 331 q 396 331 396 307 q 396 260 397 169 q 399 78 399 47 q 399 -62 374 -110 q 348 -157 319 -175 q 290 -194 248 -194 q 212 -194 192 -184 q 171 -173 171 -165 q 171 -161 175 -156 q 179 -152 184 -152 q 188 -152 200 -157 q 212 -162 227 -162 q 254 -162 281 -144 q 307 -125 314 -93 q 322 -61 322 3 q 322 232 321 258 q 319 284 284 290 q 249 295 249 313 q 249 331 274 331 q 282 331 304 328 q 326 325 340 325 q 351 325 362 328 q 374 331 379 331 z m 288 59 q 301 59 301 47 q 301 32 262 9 q 223 -13 184 -13 q 158 -13 127 5 q 97 22 90 49 q 82 76 82 145 l 83 243 q 83 283 48 290 q 27 294 22 298 q 16 301 16 312 q 16 320 21 325 q 25 331 32 331 q 39 331 60 326 q 81 322 87 322 q 94 322 115 326 q 137 331 142 331 q 146 331 150 328 q 155 324 156 320 q 157 316 158 252 q 159 188 159 135 q 159 94 162 75 q 165 57 180 46 q 196 34 221 34 q 240 34 261 47 q 281 59 288 59 z"},"@":{"x_min":0,"x_max":814,"ha":814,"o":"m 567 550 q 566 543 562 533 q 552 497 552 425 l 552 261 q 552 241 572 227 q 592 212 629 212 q 703 212 703 341 q 703 477 631 557 q 560 638 444 638 q 296 638 211 553 q 126 467 126 329 q 126 238 167 174 q 208 109 279 77 q 349 44 411 44 q 474 44 523 57 q 573 69 583 89 q 593 108 608 108 q 620 108 629 98 q 638 89 638 82 q 638 59 567 32 q 497 5 411 5 q 239 5 132 89 q 25 173 25 329 q 25 424 77 507 q 129 589 222 636 q 314 683 429 683 q 593 683 691 592 q 789 500 789 338 q 789 263 740 214 q 691 166 628 166 q 543 166 503 212 q 428 157 343 157 q 279 157 236 193 q 193 229 193 283 q 193 332 232 393 q 271 455 330 494 q 389 534 446 534 q 505 534 528 542 q 552 551 559 551 q 562 551 567 550 z m 473 292 l 473 424 q 473 461 465 476 q 457 491 436 491 q 374 491 325 423 q 277 355 277 283 q 277 247 303 226 q 329 206 377 206 q 413 206 443 229 q 473 252 473 292 z"},".":{"x_min":0,"x_max":134,"ha":134,"o":"m 67 90 q 88 90 103 76 q 118 62 118 39 q 118 16 104 3 q 89 -10 69 -10 q 51 -10 34 5 q 16 20 16 39 q 16 60 31 75 q 46 90 67 90 z"},"p":{"x_min":0,"x_max":496,"ha":496,"o":"m 87 -78 q 90 -50 90 76 q 90 137 87 254 q 86 267 77 276 q 68 285 39 290 q 17 293 10 298 q 4 303 4 310 q 4 329 34 329 q 40 329 63 324 q 86 320 92 320 q 98 320 118 325 q 138 331 143 331 q 156 331 160 325 q 163 319 163 307 l 163 135 q 163 82 196 51 q 229 20 274 20 q 295 20 329 39 q 362 58 381 93 q 400 129 400 174 q 400 227 367 269 q 335 310 292 310 q 266 310 244 301 q 223 291 216 291 q 209 291 204 295 q 198 300 198 306 q 198 320 234 335 q 270 350 296 350 q 375 350 428 300 q 482 250 482 163 q 482 96 427 40 q 372 -16 294 -16 q 264 -16 238 -8 q 211 0 168 28 q 164 28 164 3 q 164 -59 156 -92 q 147 -124 127 -148 q 107 -172 88 -182 q 69 -192 51 -192 q 24 -192 24 -179 q 24 -174 36 -167 q 65 -151 76 -126 q 87 -100 87 -78 z"},"X":{"x_min":0,"x_max":633,"ha":633,"o":"m 351 385 q 351 381 352 379 l 397 305 q 496 142 527 87 q 542 62 552 53 q 563 44 578 38 q 592 32 618 32 q 643 32 643 10 q 643 0 635 -5 q 627 -10 607 -10 q 586 -10 557 -6 q 527 -3 519 -3 q 503 -3 469 -8 q 435 -13 427 -13 q 392 -13 392 12 q 392 21 397 26 q 403 32 421 34 q 439 36 444 39 q 448 43 448 49 q 448 55 439 69 q 429 83 415 108 q 400 134 368 186 l 300 295 l 296 299 l 292 295 q 260 247 222 185 q 185 123 163 90 q 142 58 142 49 q 142 43 147 39 q 151 35 170 32 q 189 29 195 24 q 200 19 200 11 q 200 -3 192 -8 q 183 -13 169 -13 q 153 -13 126 -9 q 100 -5 86 -5 q 74 -5 50 -9 q 27 -13 18 -13 q -10 -13 -10 9 q -10 30 15 30 q 37 30 59 40 q 81 51 91 67 l 262 342 q 264 346 264 349 q 264 353 261 358 l 117 598 q 104 620 91 633 q 79 646 68 650 q 57 653 34 656 q 11 658 4 663 q -3 668 -3 677 q -3 686 4 693 q 11 700 25 700 q 38 700 71 696 q 104 692 117 692 q 133 692 170 697 q 207 701 216 701 q 250 701 250 679 q 250 669 245 663 q 239 656 221 656 q 202 655 198 651 q 194 647 194 640 q 194 633 315 442 l 320 436 l 326 442 l 398 558 q 449 638 449 643 q 449 649 445 652 q 440 656 420 656 q 399 657 393 663 q 387 668 387 678 q 387 702 422 702 q 434 702 459 698 q 485 694 490 694 q 505 694 532 698 q 560 703 566 703 q 579 703 587 696 q 595 688 595 681 q 595 672 587 666 q 580 660 556 657 q 532 654 525 651 q 517 648 508 639 q 499 630 479 598 q 403 472 353 393 q 351 389 351 385 z"},"*":{"x_min":0,"x_max":220,"ha":220,"o":"m 171 533 q 168 535 153 551 q 138 567 134 567 q 131 567 131 560 q 131 552 136 537 q 142 522 142 515 q 142 503 134 495 q 125 487 115 487 q 103 487 96 495 q 89 503 89 516 q 89 521 95 539 q 101 557 101 562 q 101 568 98 568 q 90 568 74 549 q 58 530 43 530 q 32 530 25 538 q 17 546 17 557 q 17 569 25 575 q 33 582 52 587 q 78 594 78 598 q 78 603 53 608 q 15 617 15 639 q 15 648 23 658 q 31 667 42 667 q 57 667 74 648 q 91 628 96 628 l 98 634 q 98 641 93 655 q 88 669 88 676 q 88 689 95 698 q 103 706 115 706 q 142 706 142 678 q 142 670 137 653 q 133 636 133 633 q 133 627 136 627 q 141 627 154 642 q 167 657 174 660 q 180 664 188 664 q 201 664 209 654 q 217 643 217 635 q 217 625 207 619 q 196 612 174 606 q 151 600 151 595 q 151 590 182 584 q 213 579 213 557 q 213 547 207 538 q 200 529 188 529 q 180 529 171 533 z"},"Y":{"x_min":0,"x_max":650,"ha":650,"o":"m 358 390 q 362 392 367 400 l 379 420 q 505 620 505 643 q 505 650 500 654 q 495 658 474 659 q 453 660 446 666 q 440 671 440 681 q 440 692 452 698 q 464 704 479 704 q 492 704 518 699 q 543 695 557 695 q 569 695 593 699 q 616 703 627 703 q 639 703 650 697 q 660 691 660 682 q 660 658 624 658 q 599 658 580 646 q 560 634 538 596 l 513 554 q 376 330 376 311 l 376 102 q 376 54 383 43 q 389 32 409 27 q 430 22 434 18 q 438 13 438 6 q 438 -4 430 -10 q 422 -17 412 -17 q 399 -17 376 -12 q 352 -8 339 -8 q 327 -8 304 -12 q 281 -17 270 -17 q 254 -17 243 -11 q 231 -5 231 5 q 231 13 235 19 q 240 25 257 29 q 275 32 281 39 q 288 45 289 53 q 290 60 290 89 l 290 323 q 290 333 284 342 l 107 594 q 83 627 67 641 q 51 655 24 655 q -10 655 -10 679 q -10 702 23 702 q 40 702 72 698 q 104 693 121 693 q 135 693 163 698 q 191 702 205 702 q 253 702 253 679 q 253 670 247 664 q 241 659 219 656 q 198 654 193 650 q 188 646 188 639 q 188 623 267 518 q 277 503 316 447 q 355 390 358 390 z"},"c":{"x_min":0,"x_max":405,"ha":405,"o":"m 369 64 q 383 64 383 41 q 383 26 333 3 q 284 -20 230 -20 q 141 -20 78 34 q 14 88 14 170 q 14 243 74 298 q 134 353 218 353 q 263 353 320 334 q 377 316 377 301 q 377 273 380 256 q 383 239 383 237 q 383 215 363 215 q 348 215 339 244 q 331 273 303 291 q 276 308 236 308 q 186 308 142 271 q 99 234 99 166 q 99 104 147 64 q 196 24 248 24 q 267 24 288 29 q 308 34 333 49 q 358 64 369 64 z"},"!":{"x_min":0,"x_max":129,"ha":129,"o":"m 16 666 q 16 684 30 698 q 44 711 66 711 q 86 711 100 696 q 113 680 113 662 q 113 617 103 446 q 93 275 92 241 q 90 208 86 194 q 82 180 64 180 q 43 180 42 207 z m 62 92 q 86 92 102 78 q 117 63 117 37 q 117 19 102 5 q 86 -8 66 -8 q 46 -8 30 8 q 13 24 13 44 q 13 63 28 78 q 42 92 62 92 z"},"/":{"x_min":0,"x_max":570,"ha":570,"o":"m 585 771 q 585 769 583 765 l 426 514 l 60 -86 q 48 -106 42 -109 q 36 -113 19 -113 q -2 -113 -2 -106 q -2 -103 2 -96 l 141 131 l 528 760 q 535 771 541 774 q 547 777 563 777 q 585 777 585 771 z"},"[":{"x_min":0,"x_max":300,"ha":300,"o":"m 131 -97 l 168 -97 q 177 -97 192 -93 q 207 -88 226 -88 q 234 -88 241 -95 q 248 -102 248 -109 q 248 -135 211 -135 l 50 -135 l 50 800 l 211 800 q 248 800 248 774 q 248 767 241 760 q 234 753 226 753 q 207 753 192 758 q 177 762 168 762 l 131 762 z"},"6":{"x_min":0,"x_max":540,"ha":540,"o":"m 305 525 q 351 525 405 495 q 459 466 491 412 q 524 358 524 288 q 524 195 489 124 q 453 52 392 17 q 332 -18 283 -18 q 162 -18 89 80 q 15 178 15 355 q 15 519 92 619 q 168 719 275 719 q 352 719 409 684 q 467 649 467 624 q 467 619 460 615 q 453 610 446 610 q 436 610 401 632 q 365 653 340 661 q 315 668 294 668 q 203 668 165 570 q 126 471 126 329 q 126 188 165 111 q 204 35 279 35 q 353 35 385 100 q 417 165 417 304 q 417 387 385 432 q 354 476 305 476 q 290 476 271 470 q 253 464 223 445 q 192 426 181 426 q 174 426 169 431 q 164 437 164 444 q 164 465 215 495 q 267 525 305 525 z"},"r":{"x_min":0,"x_max":314,"ha":314,"o":"m 161 235 l 163 221 q 166 221 186 268 q 207 314 227 333 q 247 353 268 353 q 285 353 293 347 q 302 341 302 334 q 302 321 296 314 q 290 306 275 295 q 213 248 186 180 q 158 112 158 67 q 158 46 164 38 q 169 31 191 26 q 212 21 219 15 q 225 9 225 1 q 225 -13 208 -13 q 194 -13 170 -9 q 146 -4 118 -4 q 100 -4 81 -9 q 62 -13 56 -13 q 42 -13 34 -8 q 26 -3 26 5 q 26 11 31 15 q 35 20 57 27 q 78 35 83 42 q 88 49 88 88 l 88 237 q 88 251 81 262 q 75 273 55 280 q 35 286 31 290 q 28 294 28 300 q 28 316 51 316 q 57 316 72 313 q 87 311 93 311 q 98 311 109 313 q 120 315 135 315 q 161 315 161 259 z"},"2":{"x_min":0,"x_max":534,"ha":534,"o":"m 186 83 l 382 83 q 389 83 393 88 q 397 93 397 112 q 397 131 402 137 q 406 142 414 142 q 459 142 459 52 q 459 44 461 40 q 463 37 463 29 q 463 17 453 8 q 443 0 429 0 l 127 0 q 108 0 99 4 q 91 8 91 21 q 91 56 127 114 q 164 173 226 222 q 258 248 336 329 q 414 409 414 519 q 414 579 373 629 q 331 679 246 679 q 210 679 165 662 q 120 646 94 614 q 69 583 69 532 q 69 489 90 464 q 111 439 127 439 q 131 439 141 443 q 151 447 159 447 q 176 447 188 435 q 200 424 200 404 q 200 385 181 373 q 161 360 134 360 q 83 360 49 406 q 15 452 15 514 q 15 611 86 669 q 157 726 277 726 q 320 726 382 707 q 444 688 484 636 q 524 584 524 507 q 524 447 494 397 q 463 347 419 308 q 375 270 299 215 q 222 161 204 135 q 186 108 186 83 z"},"{":{"x_min":0,"x_max":280,"ha":280,"o":"m 103 328 q 144 313 169 284 q 194 255 194 217 l 194 67 q 194 11 206 -37 q 219 -84 252 -118 q 259 -125 259 -127 q 259 -146 252 -146 q 244 -146 212 -127 q 181 -109 148 -75 q 116 -42 103 12 q 97 33 97 82 l 97 214 q 97 250 77 275 q 57 301 25 313 l 25 343 q 57 354 77 379 q 97 404 97 438 l 97 570 q 97 634 107 655 q 119 696 149 728 q 180 760 211 779 q 243 798 252 798 q 259 798 259 779 l 252 770 q 219 736 206 689 q 194 641 194 585 l 194 435 q 194 399 169 371 q 144 343 103 328 z"},"9":{"x_min":0,"x_max":536,"ha":536,"o":"m 256 719 q 376 719 449 621 q 521 523 521 346 q 521 178 445 80 q 370 -18 264 -18 q 188 -18 130 17 q 72 51 72 77 q 72 82 79 86 q 86 91 93 91 q 103 91 137 69 q 172 48 197 41 q 223 33 245 33 q 292 33 328 61 q 365 89 389 173 q 413 256 413 372 q 413 512 374 589 q 335 666 260 666 q 188 666 155 602 q 122 537 122 397 q 122 314 154 270 q 185 225 234 225 q 252 225 272 231 q 292 237 320 256 q 348 275 358 275 q 365 275 370 269 q 375 264 375 257 q 375 235 325 206 q 276 176 234 176 q 188 176 134 205 q 80 235 48 289 q 15 342 15 413 q 15 504 52 577 q 88 650 148 685 q 208 719 256 719 z"}," ":{"x_min":0,"x_max":160,"ha":160,"o":""},"I":{"x_min":0,"x_max":260,"ha":260,"o":"m 86 601 q 86 629 75 640 q 64 650 47 656 q 29 661 23 666 q 16 670 16 683 q 16 690 23 695 q 29 700 38 700 q 53 700 84 695 q 115 690 131 690 q 146 690 174 695 q 203 699 217 699 q 241 699 241 679 q 241 667 235 663 q 229 658 209 655 q 189 651 181 634 q 172 617 172 585 l 172 78 q 172 64 178 53 q 185 42 208 36 q 230 30 235 23 q 240 17 240 8 q 240 -10 210 -10 q 196 -10 170 -5 q 144 0 130 0 q 117 0 91 -4 q 65 -8 52 -8 q 15 -8 15 15 q 15 21 19 26 q 23 31 47 35 q 70 40 78 56 q 86 73 86 94 z"},"H":{"x_min":0,"x_max":682,"ha":682,"o":"m 590 85 q 590 68 598 55 q 606 42 631 35 q 656 28 661 23 q 666 18 666 10 q 666 3 656 -3 q 646 -10 630 -10 q 618 -10 590 -5 q 562 -1 552 -1 q 537 -1 511 -5 q 486 -9 475 -9 q 440 -9 440 12 q 440 24 446 28 q 452 32 469 35 q 485 38 496 48 q 507 58 507 91 l 507 384 q 507 399 497 408 q 488 417 454 417 l 240 417 q 213 417 205 423 q 198 429 198 440 q 198 452 208 458 q 218 463 244 463 l 475 463 q 494 463 500 469 q 505 475 505 492 q 505 600 502 623 q 500 646 461 656 q 441 662 437 668 q 432 674 432 683 q 432 689 439 695 q 447 700 457 700 q 476 700 503 696 q 531 692 547 692 q 563 692 588 696 q 612 699 634 699 q 657 699 657 680 q 657 668 651 664 q 646 660 629 657 q 612 654 601 643 q 590 632 590 597 z m 173 85 q 173 70 181 58 q 189 45 214 37 q 239 29 244 23 q 249 18 249 10 q 249 3 239 -3 q 229 -10 213 -10 q 201 -10 173 -5 q 145 -1 135 -1 q 120 -1 94 -5 q 69 -9 58 -9 q 23 -9 23 12 q 23 24 29 28 q 35 32 51 35 q 67 38 77 48 q 88 58 88 91 l 88 605 q 88 622 81 635 q 73 648 49 655 q 25 662 20 668 q 15 674 15 683 q 15 689 22 695 q 30 700 40 700 q 59 700 86 696 q 114 692 130 692 q 146 692 171 696 q 195 699 217 699 q 240 699 240 680 q 240 668 234 664 q 228 660 211 656 q 195 652 184 641 q 173 630 173 597 z"},"4":{"x_min":0,"x_max":534,"ha":534,"o":"m 404 310 q 404 300 412 298 q 420 296 440 296 q 472 296 493 303 q 515 310 517 310 q 521 310 525 306 q 528 303 528 298 q 528 278 487 258 q 447 238 417 238 q 410 238 407 235 q 405 232 405 226 l 405 81 q 405 54 416 45 q 426 36 443 35 q 485 33 485 10 q 485 -10 450 -10 q 441 -10 419 -5 q 396 -1 361 -1 q 335 -1 307 -5 q 278 -10 272 -10 q 252 -10 245 -4 q 238 1 238 13 q 238 21 243 25 q 249 30 276 33 q 303 36 310 46 q 318 56 318 82 l 318 232 q 318 244 311 247 q 252 271 147 271 q 110 271 75 255 q 40 239 32 239 q 27 239 22 243 q 18 248 18 256 q 18 263 30 278 l 365 705 q 379 724 393 724 q 400 724 405 718 q 410 712 410 702 q 410 695 407 680 q 404 664 404 652 z m 316 332 l 316 538 q 316 556 312 556 q 309 556 297 541 l 127 326 l 124 317 l 132 319 q 175 331 226 331 q 263 331 283 327 q 304 323 306 323 q 316 323 316 332 z"},"~":{"x_min":0,"x_max":541,"ha":541,"o":"m 509 330 l 531 329 q 529 268 496 231 q 463 195 410 195 q 389 195 359 203 q 329 211 263 240 q 196 270 169 278 q 142 285 122 285 q 49 285 31 195 l 10 196 q 14 257 44 294 q 75 331 124 331 q 145 331 175 323 q 206 314 276 284 q 347 254 374 246 q 400 239 418 239 q 456 239 480 263 q 504 287 509 330 z"},"D":{"x_min":0,"x_max":665,"ha":665,"o":"m 284 704 q 357 704 449 662 q 541 620 597 536 q 654 452 654 340 q 654 188 560 89 q 466 -9 317 -9 l 40 -7 q 29 -7 21 -1 q 13 4 13 14 q 13 22 19 28 q 24 33 48 36 q 72 39 78 46 q 85 54 85 65 l 85 620 q 85 642 78 652 q 71 662 63 663 q 55 665 32 665 q 18 665 13 670 q 8 674 8 684 q 8 704 40 704 z m 168 92 q 168 63 194 48 q 220 33 289 33 q 364 33 403 53 q 468 86 509 160 q 550 233 550 308 q 550 373 539 430 q 528 488 499 534 q 471 580 413 621 q 355 662 260 662 q 168 662 168 622 z"},"^":{"x_min":0,"x_max":469,"ha":469,"o":"m 243 676 l 451 326 l 406 326 l 235 612 l 64 326 l 18 326 l 229 676 z"},"0":{"x_min":0,"x_max":522,"ha":522,"o":"m 269 721 q 323 721 381 677 q 438 634 472 548 q 507 461 507 339 q 507 177 435 79 q 364 -18 261 -18 q 202 -18 144 21 q 85 61 50 145 q 15 228 15 357 q 15 508 84 615 q 154 721 269 721 z m 260 30 q 327 30 365 117 q 402 205 402 366 q 402 507 365 589 q 327 672 266 672 q 202 672 163 572 q 123 471 123 331 q 123 206 159 118 q 196 30 260 30 z"},"F":{"x_min":0,"x_max":449,"ha":449,"o":"m 413 704 q 432 704 437 699 q 441 694 443 677 q 446 661 448 646 q 451 631 451 622 q 451 593 427 593 q 421 593 416 598 q 411 603 403 626 q 395 648 387 655 q 379 662 369 662 l 235 662 q 201 662 190 653 q 179 643 179 624 l 179 521 q 179 488 188 475 q 198 461 233 461 l 363 461 q 379 461 387 474 q 396 487 396 504 q 396 512 401 517 q 406 522 414 522 q 422 522 428 516 q 434 510 434 499 q 434 489 433 469 q 431 450 431 438 q 431 419 434 399 q 436 378 436 374 q 436 363 430 357 q 425 350 417 350 q 408 350 402 359 q 396 367 396 382 q 396 417 354 417 l 224 417 q 200 417 191 410 q 183 402 183 388 l 183 97 q 183 78 193 64 q 202 49 232 41 q 261 32 267 25 q 273 18 273 9 q 273 -8 253 -8 q 244 -8 216 0 q 188 8 162 8 q 116 8 86 0 q 56 -9 47 -9 q 17 -9 17 16 q 17 22 22 27 q 27 32 53 38 q 79 44 88 56 q 96 67 96 82 l 96 529 q 96 597 93 622 q 90 648 80 655 q 70 661 44 661 q 27 661 17 667 q 8 673 8 683 q 8 691 16 698 q 24 704 37 704 z"},"`":{"x_min":0,"x_max":500,"ha":500,"o":"m 220 603 q 252 603 292 544 q 332 484 332 463 q 332 453 321 453 q 308 453 275 489 q 243 525 229 534 q 215 543 205 543 q 168 543 168 574 q 168 587 182 595 q 196 603 220 603 z"},"k":{"x_min":0,"x_max":495,"ha":495,"o":"m 400 58 q 411 46 427 46 q 436 46 449 61 q 461 75 469 75 q 477 75 482 68 q 488 61 488 53 q 488 28 461 4 q 434 -20 409 -20 q 387 -20 356 2 q 326 24 266 94 q 223 145 214 145 q 210 145 201 135 q 191 126 180 116 q 168 105 167 100 q 166 94 166 65 q 166 52 173 42 q 179 33 202 30 q 225 27 230 21 q 235 15 235 6 q 235 -1 230 -6 q 226 -10 211 -10 q 196 -10 167 -6 q 139 -3 124 -3 q 110 -3 84 -6 q 58 -10 44 -10 q 13 -10 13 9 q 13 18 18 23 q 23 29 48 31 q 72 34 80 46 q 87 59 87 75 l 87 607 q 87 621 80 630 q 73 640 48 646 q 24 652 19 658 q 13 664 13 672 q 13 679 21 684 q 30 689 38 689 q 46 689 63 685 q 80 680 90 680 q 101 680 117 684 q 133 687 138 687 q 148 687 153 682 q 159 676 162 656 q 165 636 165 572 l 165 187 q 165 175 174 175 q 180 175 213 209 l 278 276 q 283 281 283 284 q 283 287 271 292 q 260 296 260 306 q 260 316 264 321 q 269 326 284 326 q 294 326 314 324 q 333 322 344 322 q 357 322 385 325 q 412 328 425 328 q 439 328 449 322 q 460 316 460 306 q 460 287 424 287 q 371 287 351 278 q 331 270 305 244 q 280 219 277 215 q 274 211 274 205 q 274 193 285 181 z"},"u":{"x_min":0,"x_max":487,"ha":487,"o":"m 320 248 q 320 283 282 289 q 259 292 253 297 q 247 302 247 310 q 247 328 275 328 q 282 328 304 323 q 327 318 352 318 q 359 318 369 320 q 379 322 382 322 q 395 322 395 292 q 395 67 399 52 q 403 38 438 29 q 457 24 461 21 q 466 17 466 11 q 466 5 458 0 q 450 -6 437 -6 q 432 -6 411 -2 q 390 1 381 1 q 372 1 358 -2 q 345 -6 341 -6 q 330 -6 326 0 q 322 6 321 29 q 320 52 320 117 z m 158 81 q 158 57 177 42 q 195 26 220 26 q 236 26 257 38 q 278 51 288 51 q 298 51 298 39 q 298 25 261 4 q 225 -17 179 -17 q 144 -17 117 5 q 90 27 86 54 q 82 81 82 255 q 82 278 34 289 q 13 293 13 305 q 13 313 20 317 q 26 322 36 322 q 39 322 65 318 q 90 314 108 314 q 114 314 127 318 q 139 321 142 321 q 158 321 158 255 z"},"]":{"x_min":0,"x_max":300,"ha":300,"o":"m 250 -135 l 89 -135 q 52 -135 52 -109 q 52 -102 59 -95 q 65 -88 74 -88 q 93 -88 108 -93 q 123 -97 132 -97 l 169 -97 l 169 762 l 132 762 q 123 762 108 758 q 93 753 74 753 q 65 753 59 760 q 52 767 52 774 q 52 800 89 800 l 250 800 z"},"U":{"x_min":0,"x_max":667,"ha":667,"o":"m 532 613 q 532 658 477 658 q 449 658 449 681 q 449 703 485 703 q 496 703 517 699 q 538 695 549 695 q 563 695 591 699 q 618 704 632 704 q 642 704 651 698 q 660 692 660 684 q 660 670 652 666 q 645 661 620 658 q 596 655 588 639 q 580 623 580 603 l 580 205 q 580 131 564 94 q 547 56 510 27 q 473 -1 424 -14 q 375 -28 318 -28 q 214 -28 146 23 q 78 74 78 162 l 78 620 q 78 634 71 644 q 63 653 38 656 q 13 659 8 665 q 2 670 2 679 q 2 689 11 695 q 20 701 31 701 q 45 701 71 697 q 98 692 111 692 q 126 692 156 697 q 187 702 202 702 q 219 702 229 696 q 240 690 240 679 q 240 670 235 664 q 230 658 208 656 q 187 654 176 646 q 164 638 164 610 l 164 165 q 164 99 210 61 q 257 22 329 22 q 375 22 418 37 q 462 52 494 82 q 525 112 529 162 q 532 174 532 220 z"},"o":{"x_min":0,"x_max":438,"ha":438,"o":"m 222 351 q 303 351 364 295 q 424 240 424 167 q 424 85 366 34 q 309 -17 212 -17 q 136 -17 75 35 q 14 87 14 165 q 14 239 68 295 q 121 351 222 351 z m 223 26 q 279 26 313 66 q 346 107 346 169 q 346 230 310 269 q 274 308 219 308 q 163 308 131 270 q 100 231 100 171 q 100 104 135 65 q 169 26 223 26 z"},"N":{"x_min":0,"x_max":669,"ha":669,"o":"m 532 612 q 532 632 518 644 q 504 656 483 656 q 466 656 456 662 q 446 667 446 677 q 446 688 455 695 q 465 701 476 701 q 482 701 516 695 q 550 689 561 689 q 576 689 600 694 q 624 698 635 698 q 664 698 664 675 q 664 656 635 656 q 609 656 597 648 q 585 640 583 629 q 580 618 580 601 l 580 114 q 580 65 591 39 q 601 12 601 -4 q 601 -19 588 -19 q 579 -19 574 -15 q 569 -11 559 2 l 153 540 q 146 548 141 548 q 134 548 134 530 l 134 78 q 134 58 151 45 q 168 33 184 33 q 223 33 223 8 q 223 0 219 -5 q 214 -10 198 -10 q 183 -10 151 -5 q 120 -1 111 -1 q 98 -1 68 -5 q 38 -10 30 -10 q 5 -10 5 13 q 5 32 34 32 q 58 32 73 46 q 87 59 87 84 l 87 605 q 87 629 75 643 q 62 657 44 657 q 19 657 10 663 q 2 668 2 679 q 2 699 27 699 q 31 699 49 697 q 66 694 78 694 q 87 694 99 697 q 111 699 119 699 q 133 699 154 676 q 175 653 296 491 l 511 203 q 517 196 521 196 q 532 196 532 222 z"},"+":{"x_min":0,"x_max":580,"ha":580,"o":"m 323 326 l 448 326 q 489 326 497 332 q 504 338 513 338 q 524 338 524 328 q 524 322 518 311 q 512 301 507 288 q 502 276 495 271 q 488 266 466 266 l 323 266 l 323 117 q 323 95 318 88 q 313 81 301 76 q 288 71 278 65 q 267 59 261 59 q 251 59 251 70 q 251 79 255 83 q 263 94 263 135 l 263 266 l 138 266 q 97 266 89 260 q 82 254 73 254 q 62 254 62 264 q 62 270 68 281 q 74 291 79 304 q 84 316 91 321 q 98 326 120 326 l 263 326 l 263 463 q 263 485 268 492 q 273 499 285 504 q 298 509 308 515 q 319 521 325 521 q 335 521 335 510 q 335 501 331 496 q 323 486 323 445 z"},"G":{"x_min":0,"x_max":680,"ha":680,"o":"m 634 265 q 651 265 657 262 q 664 259 664 248 q 664 237 652 225 q 640 213 640 192 l 640 152 q 640 136 650 126 q 659 117 659 110 q 659 90 616 59 q 574 28 509 7 q 444 -15 384 -15 q 231 -15 122 86 q 12 187 12 354 q 12 452 57 536 q 102 620 181 667 q 261 714 360 714 q 456 714 538 679 q 620 644 620 601 l 620 562 q 620 556 623 544 q 625 532 625 522 q 625 512 620 505 q 616 498 608 498 q 600 498 592 505 q 585 511 571 541 q 544 597 515 622 q 463 665 372 665 q 256 665 187 581 q 117 496 117 359 q 117 203 192 118 q 268 33 386 33 q 448 33 500 58 q 553 83 553 130 l 553 196 q 553 220 508 220 q 500 220 484 219 q 468 218 461 218 q 442 218 432 225 q 422 232 422 244 q 422 265 450 265 z"},"q":{"x_min":0,"x_max":493,"ha":493,"o":"m 329 307 q 329 331 353 331 q 358 331 375 328 q 393 325 399 325 q 405 325 428 330 q 452 334 458 334 q 486 334 486 316 q 486 305 482 302 q 478 298 449 294 q 421 290 411 278 q 400 267 401 239 q 405 48 405 -19 q 405 -56 399 -87 q 393 -119 374 -145 q 354 -171 334 -182 q 314 -193 280 -193 q 272 -193 267 -188 q 261 -183 261 -177 q 261 -171 275 -167 q 289 -163 300 -154 q 311 -145 320 -125 q 328 -104 329 -86 q 330 -67 330 3 q 330 28 324 28 q 321 28 303 16 q 284 3 261 -7 q 238 -17 202 -17 q 122 -17 68 37 q 14 92 14 163 q 14 248 72 300 q 130 351 194 351 q 235 351 266 336 q 298 322 298 306 q 298 293 281 293 q 274 293 255 300 q 235 306 209 306 q 159 306 125 261 q 91 216 91 159 q 91 96 151 40 q 175 20 215 20 q 249 20 276 37 q 304 53 316 75 q 329 96 329 135 z"},"d":{"x_min":0,"x_max":499,"ha":499,"o":"m 412 105 q 412 81 422 61 q 432 42 457 33 q 482 24 486 20 q 490 16 490 11 q 490 -10 468 -10 q 460 -10 447 -6 q 434 -2 413 -2 q 399 -2 382 -6 q 365 -10 361 -10 q 352 -10 345 -3 q 339 4 338 11 q 337 19 335 19 l 327 15 q 253 -27 202 -27 q 130 -27 72 28 q 14 83 14 155 q 14 236 73 289 q 131 342 209 342 q 242 342 276 325 q 311 309 311 289 q 311 283 306 278 q 302 274 296 274 q 289 274 262 286 q 235 298 213 298 q 164 298 129 257 q 95 216 95 159 q 95 111 126 63 q 157 16 211 16 q 240 16 277 32 q 314 48 325 75 q 335 102 335 157 l 335 577 q 335 618 321 633 q 308 649 282 657 q 256 665 250 668 q 244 672 244 681 q 244 688 251 692 q 259 697 272 697 q 277 697 295 694 q 312 692 323 692 q 346 692 362 694 q 378 696 382 696 q 399 696 405 686 q 411 676 411 658 q 411 626 412 606 q 412 587 412 572 z"},"1":{"x_min":0,"x_max":306,"ha":306,"o":"m 205 80 q 205 64 213 53 q 220 42 246 38 q 272 33 278 26 q 283 20 283 11 q 283 3 275 -3 q 267 -10 252 -10 q 244 -10 215 -6 q 187 -3 160 -3 q 118 -3 96 -6 q 74 -10 70 -10 q 38 -10 38 19 q 38 26 43 31 q 48 36 73 39 q 99 42 108 55 q 116 68 116 86 l 117 545 q 117 562 109 570 q 101 579 94 579 q 84 579 65 565 q 45 552 36 552 q 13 552 13 575 q 13 584 29 597 q 44 609 86 637 l 144 677 q 183 704 195 711 q 207 718 217 718 q 233 718 233 701 q 233 689 223 674 q 204 646 204 610 l 207 217 z"},"5":{"x_min":0,"x_max":513,"ha":513,"o":"m 102 531 q 102 521 109 521 q 112 521 115 523 q 139 542 174 554 q 208 566 243 566 q 285 566 345 540 q 405 513 451 454 q 497 394 497 286 q 497 191 454 120 q 410 49 337 10 q 264 -28 202 -28 q 145 -28 98 -8 q 51 13 26 41 q 0 69 0 81 q 0 87 5 94 q 9 100 17 100 q 26 100 52 79 q 95 43 125 33 q 154 22 182 22 q 225 22 274 50 q 323 78 357 134 q 390 189 390 288 q 390 386 335 450 q 279 514 226 514 q 155 514 92 429 q 80 412 73 408 q 67 405 60 405 q 45 405 45 427 q 45 437 47 448 q 54 479 54 546 l 54 669 q 54 703 90 703 l 294 703 q 306 703 318 710 q 330 717 342 717 q 348 717 352 712 q 356 708 356 701 q 356 680 312 654 q 268 627 198 627 q 169 627 141 633 q 112 638 109 638 q 102 638 102 628 z"}}}
